<svg width="200" height="38" viewBox="0 0 200 38" fill="none" xmlns="http://www.w3.org/2000/svg">
<g id="Group 35">
<rect id="Rectangle 25" width="38" height="38" rx="2" fill="#71B3C6"/>
<rect id="Rectangle 26" x="54" width="38" height="38" rx="2" fill="#71B3C6"/>
<rect id="Rectangle 27" x="108" width="38" height="38" rx="2" fill="#71B3C6"/>
<rect id="Rectangle 28" x="162" width="38" height="38" rx="2" fill="#71B3C6"/>
<g id="Group">
<path id="Vector" d="M81.0352 10.1413C82.2366 10.0663 83.2316 11.0619 83.1559 12.2632L82.9458 15.5963C82.9244 15.9363 82.6312 16.1945 82.2912 16.1726C81.9517 16.1508 81.6941 15.858 81.7156 15.5185L81.7448 15.0586C81.8076 14.0695 80.6143 13.5273 79.9106 14.2252L75.4915 18.6079C75.0075 19.0879 74.2281 19.0909 73.7404 18.6148L72.6292 17.5248C71.8484 16.7589 70.5973 16.7622 69.8206 17.5322L64.0463 23.2568C63.6587 23.641 63 23.3665 63 22.8207C63 22.6569 63.0655 22.4998 63.1819 22.3845L69.816 15.8119C70.5924 15.0426 71.8426 15.0391 72.6233 15.804L73.2032 16.3722C73.984 17.1373 75.2345 17.1336 76.0109 16.364L79.0157 13.3853C79.7231 12.684 79.1838 11.4804 78.1895 11.5417L77.721 11.5706C77.3847 11.5913 77.0953 11.3355 77.0747 10.9991C77.054 10.6631 77.3095 10.374 77.6455 10.353L81.0352 10.1413Z" fill="#D4DCE2"/>
<path id="Vector_2" d="M64.5195 26.2755C64.5195 25.3869 65.2399 24.6665 66.1285 24.6665C67.0171 24.6665 67.7375 25.3869 67.7375 26.2755V26.984C67.7375 27.8727 67.0171 28.593 66.1285 28.593C65.2399 28.593 64.5195 27.8727 64.5195 26.984V26.2755Z" fill="#D4DCE2"/>
<path id="Vector_3" d="M68.9756 23.3316C68.9756 22.443 69.696 21.7227 70.5846 21.7227C71.4732 21.7227 72.1935 22.443 72.1935 23.3316V26.9854C72.1935 27.874 71.4732 28.5944 70.5846 28.5944C69.696 28.5944 68.9756 27.874 68.9756 26.9854V23.3316Z" fill="#D4DCE2"/>
<path id="Vector_4" d="M73.4316 24.8028C73.4316 23.9142 74.152 23.1938 75.0406 23.1938C75.9292 23.1938 76.6496 23.9142 76.6496 24.8028V26.9837C76.6496 27.8723 75.9292 28.5927 75.0406 28.5927C74.152 28.5927 73.4316 27.8723 73.4316 26.9837V24.8028Z" fill="#D4DCE2"/>
<path id="Vector_5" d="M77.8867 21.1231C77.8867 20.2345 78.6071 19.5142 79.4957 19.5142C80.3843 19.5142 81.1047 20.2345 81.1047 21.1231V26.9855C81.1047 27.8741 80.3843 28.5945 79.4957 28.5945C78.6071 28.5945 77.8867 27.8741 77.8867 26.9855V21.1231Z" fill="#D4DCE2"/>
</g>
<g id="Group_2">
<path id="Vector_6" d="M181.681 18.4062C181.895 18.6189 182.181 18.7371 182.467 18.7371C182.777 18.7371 183.063 18.6189 183.254 18.4062L186.949 14.5538C187.354 14.1285 187.354 13.4194 186.901 13.0177C186.472 12.5923 185.757 12.6159 185.352 13.065L183.665 14.8199C183.013 15.4992 181.925 15.4965 181.275 14.8139C180.87 14.3886 180.155 14.3649 179.726 14.7666C179.297 15.1684 179.273 15.8774 179.678 16.3028L181.681 18.4062Z" fill="#D4DCE2"/>
<path id="Vector_7" d="M191.813 12.3323C191.813 12.3323 191.813 12.3323 191.813 12.3323C191.217 12.1906 190.621 12.545 190.502 13.1358L188.952 19.6588C188.761 20.4861 188.022 21.0532 187.164 21.0532L179.44 21.0534C178.582 21.0534 177.819 20.4389 177.652 19.6117L175.555 9.85083C175.435 9.35443 175.006 9 174.482 9H171.097C170.501 9 170 9.4964 170 10.0873C170 10.6781 170.501 11.1745 171.097 11.1745H171.959C172.902 11.1745 173.717 11.8335 173.914 12.7559L175.483 20.0845C175.888 21.9044 177.533 23.2515 179.416 23.2515H187.116C189 23.2515 190.597 21.9989 191.026 20.179L192.575 13.656C192.766 13.065 192.385 12.4742 191.813 12.3324C191.813 12.3324 191.813 12.3323 191.813 12.3323Z" fill="#D4DCE2"/>
<path id="Vector_8" d="M181.109 26.4891C181.109 27.481 180.298 28.2852 179.297 28.2852C178.297 28.2852 177.485 27.481 177.485 26.4891C177.485 25.497 178.297 24.6929 179.297 24.6929C180.298 24.6929 181.109 25.497 181.109 26.4891Z" fill="#D4DCE2"/>
<path id="Vector_9" d="M188.928 26.4891C188.928 27.481 188.117 28.2852 187.116 28.2852C186.116 28.2852 185.305 27.481 185.305 26.4891C185.305 25.497 186.116 24.6929 187.116 24.6929C188.117 24.6929 188.928 25.497 188.928 26.4891Z" fill="#D4DCE2"/>
</g>
<path id="Vector_10" d="M122.874 10C119.646 10 117 12.7324 117 16.0649C117 17.9551 118.067 19.6036 119.728 21.4568C121.389 23.31 123.705 25.4333 126.495 28.3159C126.771 28.6008 127.229 28.6009 127.505 28.3159C130.304 25.4327 132.619 23.3103 134.278 21.4568C135.937 19.6033 137 17.9536 137 16.0649C137 12.7325 134.354 10 131.126 10C130.299 10 129.577 10.2254 128.943 10.5951C127.786 11.2701 126.213 11.2704 125.056 10.5954C124.422 10.2255 123.7 10 122.873 10H122.874ZM122.874 11.4731C124.445 11.4731 125.561 12.4631 126.389 13.8841C126.661 14.354 127.34 14.3535 127.614 13.8841C128.442 12.4631 129.555 11.4731 131.126 11.4731C133.572 11.4731 135.571 13.5339 135.571 16.0649C135.571 17.375 134.805 18.6937 133.229 20.4551C132.052 21.7698 130.377 23.3822 128.437 25.3164C127.644 26.1066 126.357 26.1057 125.565 25.3146C123.631 23.3813 121.958 21.7697 120.78 20.4551C119.201 18.693 118.43 17.3733 118.43 16.0649C118.43 13.534 120.428 11.4731 122.874 11.4731H122.874Z" fill="#D4DCE2"/>
<g id="Group_3">
<path id="Vector_11" d="M28.7332 26.6527C28.7332 26.6527 28.7332 26.6527 28.7331 26.6527L23.837 21.7986C23.2549 21.2216 23.1892 20.3188 23.4998 19.5603C23.8355 18.7409 24.0112 17.8566 24.0112 16.9454C24.0112 15.0902 23.2826 13.3462 21.9593 12.0341C20.6362 10.7223 18.877 10 17.0057 10C15.1344 10 13.3752 10.7223 12.0518 12.0343C10.7285 13.3462 10 15.0903 10 16.9452C10 18.8001 10.7286 20.5444 12.0519 21.8565C13.3753 23.1684 15.1342 23.8906 17.0058 23.8906C17.8644 23.8906 18.6993 23.7384 19.4793 23.447C20.3733 23.113 21.4235 23.1808 22.1013 23.8526L26.8295 28.5399C27.0284 28.7373 27.3943 28.6945 27.6464 28.4443L28.6367 27.4624C28.889 27.2126 28.9322 26.8499 28.7332 26.6526C28.7332 26.6526 28.7332 26.6526 28.7332 26.6527ZM17.0059 22.0096C14.1894 22.0096 11.8981 19.7381 11.8981 16.9457C11.8981 14.1535 14.1896 11.8819 17.0059 11.8819C19.8224 11.8819 22.1137 14.1537 22.1137 16.9457C22.1137 19.7381 19.8225 22.0096 17.0059 22.0096Z" fill="#D4DCE2"/>
<path id="Vector_12" d="M20.5044 16.2627C20.5044 16.2627 20.5044 16.2627 20.5044 16.2627H19.0997C18.3238 16.2627 17.6949 15.6338 17.6949 14.858V13.4775C17.6949 13.2965 17.5469 13.1499 17.3645 13.1499H16.6478C16.4653 13.1499 16.3174 13.2966 16.3174 13.4775V14.2628C16.3174 15.3674 15.4219 16.2628 14.3173 16.2628L13.5082 16.2627C13.3256 16.2627 13.1777 16.4094 13.1777 16.5903V17.3008C13.1777 17.4818 13.3257 17.6284 13.5082 17.6284H14.3174C15.422 17.6284 16.3174 18.5238 16.3174 19.6284V20.4137C16.3174 20.5947 16.4654 20.7415 16.6478 20.7415H17.3645C17.5471 20.7415 17.6949 20.5947 17.6949 20.4137L17.6949 19.6283C17.6948 18.5237 18.5903 17.6282 19.6949 17.6282H20.5043C20.6869 17.6282 20.8347 17.4817 20.8347 17.3007V16.5902C20.8348 16.4096 20.687 16.2627 20.5044 16.2627V16.2627Z" fill="#D4DCE2"/>
</g>
</g>
</svg>
